<svg width="54" height="25" viewBox="0 0 54 25" fill="none" xmlns="http://www.w3.org/2000/svg">
<path d="M5.838 10L6.762 5.968H3.766L2.842 10H0.91L3.108 0.48H5.04L4.158 4.288H7.154L8.036 0.48H9.968L7.77 10H5.838ZM11.7633 7.802C11.7633 8.03533 11.8566 8.222 12.0433 8.362C12.2393 8.502 12.4819 8.572 12.7713 8.572C13.4153 8.572 14.0733 8.52533 14.7453 8.432L15.1093 8.39L14.8993 9.776C14.0313 10.0373 13.1726 10.168 12.3233 10.168C11.4739 10.168 10.8533 9.97667 10.4613 9.594C10.0786 9.21133 9.88728 8.65133 9.88728 7.914C9.88728 7.17667 9.96195 6.51867 10.1113 5.94C10.2606 5.36133 10.4799 4.83867 10.7693 4.372C11.0679 3.90533 11.4693 3.53667 11.9733 3.266C12.4866 2.986 13.0699 2.846 13.7233 2.846C15.3566 2.846 16.1733 3.54133 16.1733 4.932C16.1733 5.81867 15.8746 6.43 15.2773 6.766C14.6799 7.102 13.6859 7.27 12.2953 7.27H11.8053C11.7773 7.382 11.7633 7.55933 11.7633 7.802ZM12.5893 5.884C13.2333 5.884 13.6813 5.814 13.9333 5.674C14.1946 5.534 14.3253 5.296 14.3253 4.96C14.3253 4.55867 14.0919 4.358 13.6253 4.358C12.7946 4.358 12.2579 4.86667 12.0153 5.884H12.5893ZM18.6455 10.168C17.9642 10.168 17.4648 9.93933 17.1475 9.482C16.8302 9.01533 16.6715 8.39467 16.6715 7.62C16.6715 6.54667 16.9422 5.51533 17.4835 4.526C17.7542 4.03133 18.1275 3.62533 18.6035 3.308C19.0795 2.99067 19.6208 2.832 20.2275 2.832C20.8715 2.832 21.8235 2.944 23.0835 3.168L23.7275 3.294L22.6775 7.816L22.2995 9.958L20.4375 10.028C20.5215 9.45867 20.5822 9.09467 20.6195 8.936C20.2368 9.44933 19.7888 9.81333 19.2755 10.028C19.0608 10.1213 18.8508 10.168 18.6455 10.168ZM20.2835 4.428C19.9288 4.428 19.6162 4.61 19.3455 4.974C18.8322 5.66467 18.5755 6.54667 18.5755 7.62C18.5755 7.94667 18.6268 8.18933 18.7295 8.348C18.8322 8.49733 18.9908 8.572 19.2055 8.572C19.4295 8.572 19.6768 8.46933 19.9475 8.264C20.2275 8.05867 20.4608 7.85333 20.6475 7.648L20.9275 7.326L21.5715 4.624C20.9555 4.49333 20.5262 4.428 20.2835 4.428ZM26.224 10.168C25.5613 10.168 25.0573 9.95333 24.712 9.524C24.376 9.09467 24.208 8.48333 24.208 7.69C24.208 6.89667 24.334 6.14067 24.586 5.422C24.8473 4.70333 25.2533 4.09667 25.804 3.602C26.3546 3.098 26.9986 2.846 27.736 2.846C28.0533 2.846 28.52 2.92067 29.136 3.07L29.416 3.14L30.102 0.199999H31.978L29.71 10H27.89L28.016 9.272C27.8293 9.48667 27.5586 9.692 27.204 9.888C26.8493 10.0747 26.5226 10.168 26.224 10.168ZM29.08 4.638C28.5386 4.50733 28.0953 4.442 27.75 4.442C27.414 4.442 27.1153 4.62867 26.854 5.002C26.602 5.366 26.4153 5.79067 26.294 6.276C26.1726 6.76133 26.112 7.228 26.112 7.676C26.112 8.27333 26.35 8.572 26.826 8.572C26.9753 8.572 27.1806 8.488 27.442 8.32C27.7126 8.152 27.9413 7.984 28.128 7.816L28.408 7.564L29.08 4.638ZM12.2843 11.48C13.2923 11.48 14.0343 11.6947 14.5103 12.124C14.9863 12.544 15.2243 13.2113 15.2243 14.126C15.2243 15.0407 15.0237 15.806 14.6223 16.422C14.221 17.038 13.7123 17.4673 13.0963 17.71L13.8663 21H11.9343L11.3043 17.976H9.97434L9.27434 21H7.34234L9.54034 11.48H12.2843ZM11.5983 16.324C12.1023 16.324 12.499 16.1233 12.7883 15.722C13.087 15.3207 13.2363 14.8773 13.2363 14.392C13.2363 13.9067 13.157 13.5753 12.9983 13.398C12.8397 13.2207 12.5643 13.132 12.1723 13.132H11.0943L10.3523 16.324H11.5983ZM17.4027 18.802C17.4027 19.0353 17.496 19.222 17.6827 19.362C17.8787 19.502 18.1213 19.572 18.4107 19.572C19.0547 19.572 19.7127 19.5253 20.3847 19.432L20.7487 19.39L20.5387 20.776C19.6707 21.0373 18.812 21.168 17.9627 21.168C17.1133 21.168 16.4927 20.9767 16.1007 20.594C15.718 20.2113 15.5267 19.6513 15.5267 18.914C15.5267 18.1767 15.6013 17.5187 15.7507 16.94C15.9 16.3613 16.1193 15.8387 16.4087 15.372C16.7073 14.9053 17.1087 14.5367 17.6127 14.266C18.126 13.986 18.7093 13.846 19.3627 13.846C20.996 13.846 21.8127 14.5413 21.8127 15.932C21.8127 16.8187 21.514 17.43 20.9167 17.766C20.3193 18.102 19.3253 18.27 17.9347 18.27H17.4447C17.4167 18.382 17.4027 18.5593 17.4027 18.802ZM18.2287 16.884C18.8727 16.884 19.3207 16.814 19.5727 16.674C19.834 16.534 19.9647 16.296 19.9647 15.96C19.9647 15.5587 19.7313 15.358 19.2647 15.358C18.434 15.358 17.8973 15.8667 17.6547 16.884H18.2287ZM24.2849 21.168C23.6035 21.168 23.1042 20.9393 22.7869 20.482C22.4695 20.0153 22.3109 19.3947 22.3109 18.62C22.3109 17.5467 22.5815 16.5153 23.1229 15.526C23.3935 15.0313 23.7669 14.6253 24.2429 14.308C24.7189 13.9907 25.2602 13.832 25.8669 13.832C26.5109 13.832 27.4629 13.944 28.7229 14.168L29.3669 14.294L28.3169 18.816L27.9389 20.958L26.0769 21.028C26.1609 20.4587 26.2215 20.0947 26.2589 19.936C25.8762 20.4493 25.4282 20.8133 24.9149 21.028C24.7002 21.1213 24.4902 21.168 24.2849 21.168ZM25.9229 15.428C25.5682 15.428 25.2555 15.61 24.9849 15.974C24.4715 16.6647 24.2149 17.5467 24.2149 18.62C24.2149 18.9467 24.2662 19.1893 24.3689 19.348C24.4715 19.4973 24.6302 19.572 24.8449 19.572C25.0689 19.572 25.3162 19.4693 25.5869 19.264C25.8669 19.0587 26.1002 18.8533 26.2869 18.648L26.5669 18.326L27.2109 15.624C26.5949 15.4933 26.1655 15.428 25.9229 15.428ZM33.5293 13.832C34.0893 13.832 34.682 13.944 35.3073 14.168L35.6153 14.266L35.1393 15.638C34.4207 15.5167 33.856 15.456 33.4453 15.456C32.9133 15.456 32.5027 15.75 32.2133 16.338C31.924 16.9167 31.7793 17.598 31.7793 18.382C31.7793 19.1567 32.134 19.544 32.8433 19.544L34.3413 19.432L34.1873 20.818C33.506 21.0513 32.8247 21.168 32.1433 21.168C31.462 21.168 30.9113 20.9533 30.4913 20.524C30.0807 20.0947 29.8753 19.4973 29.8753 18.732C29.8753 17.304 30.188 16.1327 30.8133 15.218C31.448 14.294 32.3533 13.832 33.5293 13.832ZM35.3659 21L36.9759 14H38.8519L37.2419 21H35.3659ZM37.1299 13.272L37.5779 11.354H39.4679L39.0339 13.272H37.1299ZM44.0062 13.832C45.1448 13.832 45.7142 14.49 45.7142 15.806C45.7142 16.142 45.6162 16.73 45.4202 17.57L44.6362 21H42.7602L43.5162 17.71C43.6842 17.01 43.7682 16.5247 43.7682 16.254C43.7682 15.974 43.7308 15.7733 43.6562 15.652C43.5908 15.5213 43.4648 15.456 43.2782 15.456C42.9515 15.456 42.5548 15.666 42.0882 16.086L41.8642 16.296L40.7862 21H38.9102L40.5202 14H42.3122L42.2282 14.686C42.4428 14.4713 42.7228 14.2753 43.0682 14.098C43.4228 13.9207 43.7355 13.832 44.0062 13.832ZM48.6219 24.22C46.5966 24.22 45.5839 23.5807 45.5839 22.302C45.5839 21.8633 45.7379 21.4993 46.0459 21.21C46.3632 20.93 46.7786 20.664 47.2919 20.412C47.1052 20.2253 47.0119 20.0107 47.0119 19.768C47.0119 19.516 47.0819 19.278 47.2219 19.054C47.3619 18.83 47.5019 18.6527 47.6419 18.522L47.8519 18.326C47.2172 17.9527 46.8999 17.3693 46.8999 16.576C46.8999 15.7827 47.1659 15.1293 47.6979 14.616C48.2299 14.0933 48.9299 13.832 49.7979 13.832C50.1992 13.832 50.6752 13.8973 51.2259 14.028L51.4919 14.084L53.5359 14L53.1859 15.512H52.3739C52.4112 15.7173 52.4299 15.9553 52.4299 16.226C52.4299 16.9447 52.1499 17.556 51.5899 18.06C51.0392 18.5547 50.3439 18.802 49.5039 18.802L48.9019 18.732C48.7619 18.9187 48.6919 19.0773 48.6919 19.208C48.6919 19.3387 48.7806 19.432 48.9579 19.488C49.1352 19.544 49.4852 19.6093 50.0079 19.684C51.3332 19.88 51.9959 20.468 51.9959 21.448C51.9959 22.2787 51.6926 22.946 51.0859 23.45C50.4886 23.9633 49.6672 24.22 48.6219 24.22ZM48.0899 20.916C47.9032 21.0187 47.7212 21.1587 47.5439 21.336C47.3759 21.5227 47.2919 21.714 47.2919 21.91C47.2919 22.106 47.3946 22.2787 47.5999 22.428C47.8052 22.5773 48.1319 22.652 48.5799 22.652C49.6812 22.652 50.2319 22.3253 50.2319 21.672C50.2319 21.5507 50.1852 21.4527 50.0919 21.378C50.0079 21.3033 49.9099 21.252 49.7979 21.224C49.6859 21.196 49.3872 21.14 48.9019 21.056C48.4259 20.9813 48.1552 20.9347 48.0899 20.916ZM49.6019 17.276C49.9286 17.276 50.1946 17.1687 50.3999 16.954C50.6052 16.73 50.7079 16.4593 50.7079 16.142C50.7079 15.6193 50.3812 15.358 49.7279 15.358C49.4012 15.358 49.1352 15.4653 48.9299 15.68C48.7246 15.8947 48.6219 16.1653 48.6219 16.492C48.6219 17.0147 48.9486 17.276 49.6019 17.276Z" fill="#FAFAFA"/>
</svg>
